HIERARCHY
ROOT Hips
{
	OFFSET 0.00000 0.00000 0.00000
	CHANNELS 6 Xposition Yposition Zposition Zrotation Yrotation Xrotation 
	JOINT LHipJoint
	{
		OFFSET 0 0 0
		CHANNELS 3 Zrotation Yrotation Xrotation
		JOINT LeftHip
		{
			OFFSET 1.41496 -1.84582 0.78394
			CHANNELS 3 Zrotation Yrotation Xrotation
			JOINT LeftKnee
			{
				OFFSET 2.58040 -7.08960 0.00000
				CHANNELS 3 Zrotation Yrotation Xrotation
				JOINT LeftAnkle
				{
					OFFSET 2.64719 -7.27309 0.00000
					CHANNELS 3 Zrotation Yrotation Xrotation
					JOINT LeftToe
					{
						OFFSET 0.20718 -0.56921 2.20259
						CHANNELS 3 Zrotation Yrotation Xrotation
						End Site
						{
							OFFSET 0.00000 -0.00000 1.14243
						}
					}
				}
			}
		}
	}
	JOINT RHipJoint
	{
		OFFSET 0 0 0
		CHANNELS 3 Zrotation Yrotation Xrotation
		JOINT RightHip
		{
			OFFSET -1.40551 -1.84582 0.78394
			CHANNELS 3 Zrotation Yrotation Xrotation
			JOINT RightKnee
			{
				OFFSET -2.56572 -7.04926 0.00000
				CHANNELS 3 Zrotation Yrotation Xrotation
				JOINT RightAnkle
				{
					OFFSET -2.57974 -7.08778 0.00000
					CHANNELS 3 Zrotation Yrotation Xrotation
					JOINT RightToe
					{
						OFFSET -0.26704 -0.73369 2.20815
						CHANNELS 3 Zrotation Yrotation Xrotation
						End Site
						{
							OFFSET -0.00000 -0.00000 1.16246
						}
					}
				}
			}
		}
	}
	JOINT lowerback
	{
		OFFSET 0 0 0
		CHANNELS 3 Zrotation Yrotation Xrotation
		JOINT Chest
		{
			OFFSET -0.04690 2.05196 -0.07017
			CHANNELS 3 Zrotation Yrotation Xrotation
			JOINT Chest2
			{
				OFFSET 0.04085 2.05260 0.00800
				CHANNELS 3 Zrotation Yrotation Xrotation
				JOINT lowerneck
				{
					OFFSET 0 0 0
					CHANNELS 3 Zrotation Yrotation Xrotation
					JOINT Neck
					{
						OFFSET -0.03582 1.80995 0.19301
						CHANNELS 3 Zrotation Yrotation Xrotation
						JOINT Head
						{
							OFFSET 0.00952 1.80195 -0.36389
							CHANNELS 3 Zrotation Yrotation Xrotation
							End Site
							{
								OFFSET 0.00392 1.85062 -0.14494
							}
						}
					}
				}
				JOINT LeftCollar
				{
					OFFSET 0 0 0
					CHANNELS 3 Zrotation Yrotation Xrotation
					JOINT LeftShoulder
					{
						OFFSET 3.55224 1.39726 -0.13667
CHANNELS 3 Zrotation Xrotation Yrotation
						JOINT LeftElbow
						{
OFFSET 0 -5.145070 -0.000000
CHANNELS 3 Zrotation Xrotation Yrotation
							JOINT LeftWrist
							{
OFFSET 0 -3.506460 0.000000
CHANNELS 3 Zrotation Xrotation Yrotation
								JOINT lhand
								{
									OFFSET 0 0 0
CHANNELS 3 Zrotation Xrotation Yrotation
									JOINT LFingers
									{
OFFSET 0 -0.629970 0.000000
CHANNELS 3 Zrotation Xrotation Yrotation
										End Site
										{
OFFSET 0 -0.507900 0.000000
										}
									}
								}
								JOINT LThumb
								{
OFFSET 0 0.000000 0.000000
CHANNELS 3 Zrotation Xrotation Yrotation
									End Site
									{
OFFSET 0 -0.515650 0.515650
									}
								}
							}
						}
					}
				}
				JOINT RightCollar
				{
					OFFSET 0 0 0
					CHANNELS 3 Zrotation Yrotation Xrotation
					JOINT RightShoulder
					{
						OFFSET -3.06467 1.61290 -0.28813
CHANNELS 3 Zrotation Xrotation Yrotation
						JOINT RightElbow
						{
OFFSET 0 -5.232000 -0.000000
CHANNELS 3 Zrotation Xrotation Yrotation
							JOINT RightWrist
							{
OFFSET 0 -3.656410 0.000000
CHANNELS 3 Zrotation Xrotation Yrotation
								JOINT rhand
								{
									OFFSET 0 0 0
CHANNELS 3 Zrotation Xrotation Yrotation
									JOINT RFingers
									{
OFFSET 0 -0.656810 0.000000
CHANNELS 3 Zrotation Xrotation Yrotation
										End Site
										{
OFFSET 0 -0.529530 0.000000
										}
									}
								}
								JOINT RThumb
								{
OFFSET 0 0.000000 0.000000
CHANNELS 3 Zrotation Xrotation Yrotation
									End Site
									{
OFFSET 0 -0.537620 0.537620
									}
								}
							}
						}
					}
				}
			}
		}
	}
}
MOTION
Frames: 8
Frame Time: 0.008333333333333333
-1.281300 16.425100 -43.721700 -8.850800 -4.982100 24.895900 0.000000 0.000000 0.000000 -8.423400 -8.910300 -80.429900 8.518400 16.487600 54.409000 -0.448800 -12.483800 0.161400 1.379400 -7.431900 -21.001500 0.000000 0.000000 0.000000 23.338800 -0.178800 13.659100 -1.546500 -7.849700 22.258400 -1.444300 -15.073300 22.492400 -3.252500 11.093000 -32.594200 5.202600 3.847600 15.405700 1.461900 6.066300 1.080100 -2.630400 2.790900 -7.082600 -1.827900 -2.784600 -19.562100 0.716000 -3.342000 6.018100 0.192500 -1.634700 4.972700 0.000000 0.000000 0.000000 9.797100 55.703700 -33.238500 95.100900 -59.901500 64.416000 24.600900 -27.168800 10.131000 0.000000 0.000000 0.000000 -7.125000 0.000000 0.000000 -1.712100 18.864200 -1.067000 0.000000 0.000000 0.000000 -14.876100 -11.305700 44.145700 -124.269000 -55.060700 -89.185700 -27.647500 -6.752700 -1.171500 0.000000 0.000000 0.000000 7.125000 0.000000 -0.000000 -0.837500 28.656900 -0.333300
-1.283573 16.414963 -43.570599 -8.900133 -4.900974 24.817815 0.000000 0.000000 0.000000 -8.647087 -8.832430 -80.073327 8.616544 16.553521 54.752641 -0.451841 -12.502937 0.227290 1.400472 -7.485564 -21.162492 0.000000 0.000000 0.000000 23.391205 -0.211115 13.047753 -1.776792 -8.343582 23.787812 -1.256153 -15.657677 21.378908 -2.903760 10.482636 -30.607737 5.197470 3.857890 15.471989 1.467798 6.081597 1.112169 -2.628311 2.798610 -7.084781 -1.847344 -2.836605 -19.577459 0.768097 -3.412067 6.007564 0.205033 -1.665664 4.973867 0.000000 0.000000 0.000000 9.179947 55.170653 -32.758841 94.939816 -59.907398 64.276633 24.572762 -27.076585 10.088732 0.000000 0.000000 0.000000 -7.125000 0.000000 0.000000 -1.730101 18.912826 -1.076338 0.000000 0.000000 0.000000 -14.513967 -10.974377 43.992141 -123.150931 -55.392207 -88.262997 -27.615492 -6.754789 -1.005378 0.000000 0.000000 0.000000 7.125000 0.000000 0.000000 -0.815045 28.844648 -0.320951
-1.285846 16.404826 -43.419498 -8.949466 -4.819848 24.739730 0.000000 0.000000 0.000000 -8.870775 -8.754560 -79.716754 8.714687 16.619441 55.096281 -0.454882 -12.522074 0.293180 1.421545 -7.539228 -21.323485 0.000000 0.000000 0.000000 23.443609 -0.243430 12.436406 -2.007084 -8.837464 25.317223 -1.068006 -16.242053 20.265416 -2.555020 9.872272 -28.621274 5.192340 3.868181 15.538278 1.473696 6.096895 1.144239 -2.626222 2.806320 -7.086962 -1.866789 -2.888611 -19.592818 0.820195 -3.482135 5.997028 0.217566 -1.696627 4.975035 0.000000 0.000000 0.000000 8.562795 54.637606 -32.279181 94.778731 -59.913296 64.137266 24.544625 -26.984370 10.046464 0.000000 0.000000 0.000000 -7.125000 0.000000 0.000000 -1.748101 18.961453 -1.085676 0.000000 0.000000 0.000000 -14.151834 -10.643054 43.838583 -122.032862 -55.723714 -87.340294 -27.583484 -6.756878 -0.839256 0.000000 0.000000 0.000000 7.125000 0.000000 0.000000 -0.792590 29.032395 -0.308603
-1.288119 16.394689 -43.268396 -8.998799 -4.738722 24.661646 0.000000 0.000000 0.000000 -9.094462 -8.676691 -79.360181 8.812831 16.685362 55.439922 -0.457923 -12.541212 0.359069 1.442617 -7.592892 -21.484477 0.000000 0.000000 0.000000 23.496014 -0.275746 11.825059 -2.237375 -9.331345 26.846635 -0.879859 -16.826430 19.151925 -2.206280 9.261908 -26.634812 5.187210 3.878471 15.604567 1.479593 6.112192 1.176308 -2.624134 2.814031 -7.089143 -1.886233 -2.940616 -19.608177 0.872292 -3.552202 5.986491 0.230099 -1.727591 4.976202 0.000000 0.000000 0.000000 7.945642 54.104559 -31.799522 94.617647 -59.919193 63.997899 24.516487 -26.892155 10.004197 0.000000 0.000000 0.000000 -7.125000 0.000000 0.000000 -1.766102 19.010079 -1.095015 0.000000 0.000000 0.000000 -13.789701 -10.311731 43.685024 -120.914794 -56.055222 -86.417590 -27.551476 -6.758966 -0.673133 0.000000 0.000000 0.000000 7.125000 0.000000 0.000000 -0.770136 29.220143 -0.296254
-1.290370 16.387068 -43.117501 -8.997380 -4.597788 24.600486 0.000000 0.000000 0.000000 -9.355156 -8.659179 -78.987369 8.931055 16.761826 55.849387 -0.480359 -12.837002 0.341387 1.157555 -6.488575 -18.316689 0.000000 0.000000 0.000000 23.543707 -0.330246 11.049655 -2.506434 -9.818480 28.418222 -0.770870 -17.036675 18.436693 -2.130282 9.132142 -26.209600 5.159026 3.862391 15.674699 1.491141 6.091628 1.176038 -2.598167 2.803261 -7.134048 -1.938956 -2.981163 -19.580217 0.940720 -3.601388 5.969185 0.255691 -1.748148 4.969341 0.000000 0.000000 0.000000 7.338141 53.541390 -31.345753 94.311626 -59.928728 63.733037 24.449834 -26.681672 10.023407 0.000000 0.000000 0.000000 -7.125000 0.000000 0.000000 -1.814224 18.995009 -1.125601 0.000000 0.000000 0.000000 -13.448885 -9.930046 43.529201 -119.690235 -56.374881 -85.397409 -27.563633 -6.786946 -0.492556 0.000000 0.000000 0.000000 7.125000 0.000000 0.000000 -0.781942 29.423855 -0.296714
-1.292612 16.380310 -42.966676 -8.978550 -4.436335 24.545132 0.000000 0.000000 0.000000 -9.628545 -8.662373 -78.608987 9.056169 16.841907 56.281434 -0.509449 -13.227703 0.295034 0.767469 -4.986993 -14.006912 0.000000 0.000000 0.000000 23.589784 -0.392358 10.217969 -2.788793 -10.303300 30.004277 -0.689038 -17.118569 17.858092 -2.147853 9.167253 -26.320000 5.122933 3.837264 15.746149 1.504626 6.058759 1.164672 -2.564009 2.786151 -7.193610 -2.003094 -3.017778 -19.537396 1.014750 -3.643410 5.949556 0.285764 -1.765135 4.959727 0.000000 0.000000 0.000000 6.733952 52.967887 -30.900866 93.955882 -59.939510 63.425121 24.369968 -26.430615 10.063709 0.000000 0.000000 0.000000 -7.125000 0.000000 0.000000 -1.872680 18.958086 -1.163476 0.000000 0.000000 0.000000 -13.115381 -9.531082 43.372602 -118.429144 -56.690477 -84.343786 -27.590941 -6.823807 -0.307021 0.000000 0.000000 0.000000 7.125000 0.000000 0.000000 -0.805503 29.633043 -0.301567
-1.294854 16.373552 -42.815852 -8.959720 -4.274881 24.489778 0.000000 0.000000 0.000000 -9.901934 -8.665568 -78.230604 9.181283 16.921989 56.713480 -0.538539 -13.618403 0.248680 0.377383 -3.485412 -9.697134 0.000000 0.000000 0.000000 23.635861 -0.454469 9.386283 -3.071152 -10.788120 31.590333 -0.607206 -17.200463 17.279490 -2.165424 9.202363 -26.430400 5.086839 3.812137 15.817598 1.518111 6.025891 1.153306 -2.529850 2.769041 -7.253172 -2.067233 -3.054394 -19.494576 1.088780 -3.685432 5.929928 0.315837 -1.782122 4.950112 0.000000 0.000000 0.000000 6.129762 52.394385 -30.455979 93.600139 -59.950292 63.117205 24.290101 -26.179557 10.104011 0.000000 0.000000 0.000000 -7.125000 0.000000 0.000000 -1.931137 18.921163 -1.201351 0.000000 0.000000 0.000000 -12.781877 -9.132118 43.216002 -117.168053 -57.006072 -83.290164 -27.618249 -6.860669 -0.121485 0.000000 0.000000 0.000000 7.125000 0.000000 0.000000 -0.829064 29.842232 -0.306421
-1.297382 16.365442 -42.664907 -8.933542 -4.117695 24.425560 0.000000 0.000000 0.000000 -10.204712 -8.657434 -77.837031 9.310183 17.002221 57.155293 -0.596657 -14.373686 0.014259 0.151476 -2.281432 -6.291053 0.000000 0.000000 0.000000 23.665110 -0.526257 8.606584 -3.357552 -11.236610 33.100977 -0.528048 -17.262989 16.693180 -2.283467 9.417368 -27.122374 5.053841 3.787535 15.879282 1.517022 5.992122 1.146298 -2.511498 2.751751 -7.300653 -2.111149 -3.091776 -19.437887 1.171435 -3.734621 5.894387 0.345053 -1.801633 4.933390 0.000000 0.000000 0.000000 5.595619 51.770804 -30.072410 93.176437 -59.960578 62.750421 24.255761 -25.863652 10.099959 0.000000 0.000000 0.000000 -7.125000 0.000000 0.000000 -1.955336 18.928564 -1.216042 0.000000 0.000000 0.000000 -12.419615 -8.715440 43.033154 -115.832858 -57.307934 -82.168162 -27.647586 -6.928977 0.064712 0.000000 0.000000 0.000000 7.125000 0.000000 0.000000 -0.854007 30.052337 -0.311364
